<svg xmlns="http://www.w3.org/2000/svg" viewBox="0 0 64 64" role="img" aria-label="RecoveryBoard RescueMesh logo">
  <defs>
    <linearGradient id="lg" x1="0" y1="0" x2="1" y2="1">
      <stop offset="0" stop-color="#0b3d91"/>
      <stop offset="1" stop-color="#123a5e"/>
    </linearGradient>
  </defs>
  <rect x="2" y="2" width="60" height="60" rx="14" fill="url(#lg)"/>
  <!-- rescue mesh nodes -->
  <g stroke="#ffffff" stroke-opacity=".45" stroke-width="1.6">
    <path d="M16 20 L32 12 L48 20 M16 20 L24 36 L16 48 M48 20 L40 36 L48 48 M24 36 L40 36 L48 48 M16 48 L32 52 L48 48 M32 12 L24 36 M32 12 L40 36 M32 12 L32 52"/>
  </g>
  <g fill="#ffffff">
    <circle cx="32" cy="12" r="3.4"/>
    <circle cx="16" cy="20" r="3"/>
    <circle cx="48" cy="20" r="3"/>
    <circle cx="24" cy="36" r="3"/>
    <circle cx="40" cy="36" r="3"/>
    <circle cx="16" cy="48" r="3"/>
    <circle cx="48" cy="48" r="3"/>
    <circle cx="32" cy="52" r="3"/>
  </g>
  <!-- emergency pulse core -->
  <circle cx="32" cy="36" r="8" fill="#d92b2b"/>
  <path d="M32 31.5v9M27.5 36h9" stroke="#fff" stroke-width="2.6" stroke-linecap="round"/>
</svg>
